<svg fill="#FFBC5E" version="1.1" id="Capa_1" xmlns="http://www.w3.org/2000/svg" xmlns:xlink="http://www.w3.org/1999/xlink" viewBox="-2.4 -2.4 64.80 64.80" xml:space="preserve" width="201px" height="201px" stroke="#FFBC5E" stroke-width="0.0006000000000000001"><g id="SVGRepo_bgCarrier" stroke-width="0"></g><g id="SVGRepo_tracerCarrier" stroke-linecap="round" stroke-linejoin="round" stroke="#FFBC5E" stroke-width="0.12"></g><g id="SVGRepo_iconCarrier"> <g> <g> <path d="M59,53h-1V21c0-1.7-1.3-3-3-3h-6v2h6c0.6,0,1,0.4,1,1v33c0,0.6,0.4,1,1,1h1v3H2v-3h1h51v-2H4V21c0-0.6,0.4-1,1-1h7v-2H5 c-1.7,0-3,1.3-3,3v32H1c-0.6,0-1,0.4-1,1v4c0,1.2,0.8,2,2,2h56c1.2,0,2-0.8,2-2v-4C60,53.4,59.6,53,59,53z"></path> <path d="M27,31.6V37h-2c-0.6,0-1,0.4-1,1v11H7V23h5v-2H6c-0.6,0-1,0.4-1,1v28c0,0.6,0.4,1,1,1h19h11h18c0.6,0,1-0.4,1-1V22 c0-0.6-0.4-1-1-1h-5v2h4v26H37V38c0-0.6-0.4-1-1-1h-2v-5.5c7.2-1.6,12.3-8,12.3-15.5c0-8.8-7.2-16-16-16s-16,7.2-16,16 C14.3,23.6,19.6,30.1,27,31.6z M35,49h-9v-2h5v-2h-5v-2h5v-2h-5v-2h2h5h2V49z M30.3,2c7.7,0,14,6.3,14,14 c0,6.8-4.9,12.6-11.5,13.7c-0.4,0.1-0.8,0.5-0.8,1V37h-3v-6.2c0-0.5-0.3-0.9-0.8-1c-6.9-1-11.9-6.8-11.9-13.8 C16.3,8.3,22.6,2,30.3,2z"></path> <path d="M30.3,28c6.6,0,12-5.4,12-12s-5.4-12-12-12H30c-6.6,0.2-11.7,5.5-11.7,12C18.3,22.6,23.7,28,30.3,28z M40.2,15H31v-2h6v-2 h-6v-1h2V8h-2V6C35.8,6.4,39.7,10.2,40.2,15z M29,6.1V16c0,0.6,0.4,1,1,1h10.3c-0.6,5-4.8,9-10,9c-5.5,0-10-4.5-10-10 C20.3,10.9,24,6.8,29,6.1z"></path> <rect x="10" y="34" width="4" height="2"></rect> <rect x="10" y="29" width="4" height="2"></rect> <rect x="17" y="34" width="4" height="2"></rect> <rect x="17" y="39" width="4" height="2"></rect> <rect x="10" y="39" width="4" height="2"></rect> <rect x="10" y="44" width="4" height="2"></rect> <rect x="17" y="44" width="4" height="2"></rect> <rect x="39" y="34" width="4" height="2"></rect> <rect x="46" y="34" width="4" height="2"></rect> <rect x="46" y="29" width="4" height="2"></rect> <rect x="46" y="39" width="4" height="2"></rect> <rect x="39" y="39" width="4" height="2"></rect> <rect x="39" y="44" width="4" height="2"></rect> <rect x="46" y="44" width="4" height="2"></rect> </g> </g> </g></svg>